<svg width="41" height="31" viewBox="0 0 41 31" fill="none" xmlns="http://www.w3.org/2000/svg">
<path d="M3.23932 25.2989H0.581543V10.9989H3.12377V13.3336H3.23932C3.50894 12.5748 4.05783 11.9328 4.88599 11.4075C5.73339 10.8627 6.56154 10.5903 7.37043 10.5903C8.14081 10.5903 8.79561 10.7071 9.33488 10.9405L8.52599 13.5379C8.19859 13.4017 7.67859 13.3336 6.96599 13.3336C5.9645 13.3336 5.08821 13.7422 4.3371 14.5593C3.60525 15.3765 3.23932 16.3298 3.23932 17.4193V25.2989ZM8.54765 20.9214C8.54765 21.6218 8.83654 22.2054 9.41432 22.6724C10.0114 23.1393 10.7047 23.3728 11.4943 23.3728C12.6114 23.3728 13.6032 22.9545 14.4699 22.1179C15.3558 21.2813 15.7988 20.2988 15.7988 19.1703C14.9706 18.5088 13.8151 18.1781 12.3321 18.1781C11.2536 18.1781 10.3484 18.4407 9.61654 18.966C8.90394 19.4913 8.54765 20.1431 8.54765 20.9214ZM11.9854 10.532C13.9499 10.532 15.5003 11.067 16.6365 12.1371C17.7728 13.1877 18.341 14.6371 18.341 16.4854V25.2989H15.7988V23.3144H15.6832C14.5854 24.9487 13.1217 25.7658 11.2921 25.7658C9.7321 25.7658 8.42248 25.2989 7.36321 24.365C6.32321 23.4311 5.80321 22.2638 5.80321 20.863C5.80321 19.3843 6.3521 18.2073 7.44988 17.3318C8.56692 16.4562 10.0499 16.0185 11.8988 16.0185C13.478 16.0185 14.778 16.3103 15.7988 16.894V16.2811C15.7988 15.3473 15.4328 14.5593 14.701 13.9173C13.9691 13.2558 13.1121 12.925 12.1299 12.925C10.6469 12.925 9.4721 13.5573 8.60543 14.822L6.26543 13.3336C7.55581 11.4658 9.46248 10.532 11.9854 10.532ZM23.9675 4.16992C24.9304 4.16992 25.7202 4.3353 26.3364 4.66605L25.6142 7.02992C25.152 6.79645 24.632 6.67972 24.0542 6.67972C23.3993 6.67972 22.8602 6.91319 22.4364 7.38013C22.032 7.8276 21.8298 8.43074 21.8298 9.18951V10.9989H25.5275V13.4503H21.8298V25.2989H19.172V13.4503H16.5142V10.9989H19.172V8.92686C19.172 7.50658 19.615 6.3587 20.5009 5.48319C21.4061 4.60768 22.5616 4.16992 23.9675 4.16992ZM22.499 18.1489C22.499 15.9504 23.1827 14.1313 24.55 12.6916C25.9367 11.2518 27.6798 10.532 29.7789 10.532C31.8782 10.532 33.6115 11.2518 34.9789 12.6916C36.3655 14.1313 37.0589 15.9504 37.0589 18.1489C37.0589 20.3669 36.3655 22.186 34.9789 23.6062C33.6115 25.046 31.8782 25.7658 29.7789 25.7658C27.6798 25.7658 25.9367 25.046 24.55 23.6062C23.1827 22.1665 22.499 20.3474 22.499 18.1489ZM25.1567 18.1489C25.1567 19.6859 25.5998 20.9311 26.4855 21.8844C27.3715 22.8378 28.4693 23.3144 29.7789 23.3144C31.0887 23.3144 32.1864 22.8378 33.0722 21.8844C33.9582 20.9311 34.4011 19.6859 34.4011 18.1489C34.4011 16.6314 33.9582 15.3959 33.0722 14.4426C32.1671 13.4698 31.0693 12.9834 29.7789 12.9834C28.4887 12.9834 27.3909 13.4698 26.4855 14.4426C25.5998 15.3959 25.1567 16.6314 25.1567 18.1489ZM40.4187 23.4895C40.4187 24.0343 40.226 24.5012 39.8409 24.8903C39.4749 25.2794 39.0127 25.474 38.4542 25.474C37.9149 25.474 37.4527 25.2794 37.0675 24.8903C36.6824 24.5012 36.4898 24.0343 36.4898 23.4895C36.4898 22.9253 36.6824 22.4584 37.0675 22.0887C37.4527 21.6996 37.9149 21.505 38.4542 21.505C39.0127 21.505 39.4749 21.6996 39.8409 22.0887C40.226 22.4584 40.4187 22.9253 40.4187 23.4895Z" fill="#F9FAFB"/>
</svg>
