<svg width="183" height="55" viewBox="0 0 183 55" fill="none" xmlns="http://www.w3.org/2000/svg">
<path d="M9.69642 24.441C10.2474 23.1423 9.64121 21.6427 8.34243 21.0917C7.04365 20.5407 5.54412 21.1469 4.99312 22.4457L9.69642 24.441ZM112.871 20.8915L112.464 23.4134L112.871 20.8915ZM143.836 30.9551L145.467 32.921L143.836 30.9551ZM182.013 13.4668C182.615 12.1909 182.069 10.6685 180.793 10.0663L160.002 0.252669C158.727 -0.349542 157.204 0.196538 156.602 1.47238C156 2.74821 156.546 4.27067 157.822 4.87289L176.302 13.5961L167.579 32.077C166.977 33.3528 167.523 34.8753 168.799 35.4775C170.075 36.0797 171.597 35.5336 172.199 34.2578L182.013 13.4668ZM4.99312 22.4457C1.91592 29.6992 0.574804 35.4399 1.06535 39.8187C1.31727 42.0675 2.06082 44.0299 3.36192 45.614C4.66165 47.1966 6.38094 48.2352 8.31186 48.8639C12.063 50.0853 16.8847 49.8476 22.0926 48.9101C27.3776 47.9588 33.4254 46.2138 39.8191 44.0932C46.2219 41.9697 53.057 39.4403 59.9143 36.8988C66.7886 34.351 73.6878 31.7899 80.2871 29.5732C86.8907 27.3551 93.1284 25.5044 98.6695 24.3663C104.25 23.2201 108.919 22.8416 112.464 23.4134L113.278 18.3695C108.824 17.6511 103.438 18.1711 97.6416 19.3617C91.8056 20.5604 85.3442 22.485 78.6603 24.7301C71.972 26.9767 64.9952 29.567 58.1387 32.1082C51.2652 34.6557 44.5147 37.1532 38.2108 39.2439C31.8979 41.3377 26.1178 42.9944 21.1875 43.8819C16.1801 44.7833 12.399 44.8217 9.89362 44.0059C8.69625 43.616 7.8738 43.0578 7.31005 42.3714C6.74766 41.6867 6.30597 40.708 6.14263 39.2499C5.80263 36.215 6.71082 31.4786 9.69642 24.441L4.99312 22.4457ZM112.464 23.4134C132.496 26.6443 146.765 30.3362 154.052 34.4957C157.778 36.6226 158.863 38.4053 158.947 39.6095C159.029 40.8012 158.222 42.8246 154.425 45.6874L157.501 49.7665C161.575 46.6944 164.316 43.2023 164.043 39.2575C163.772 35.3253 160.6 32.3505 156.585 30.0586C148.389 25.3806 133.242 21.5896 113.278 18.3695L112.464 23.4134ZM154.425 45.6874C150.808 48.4154 147.932 49.146 145.93 48.983C143.996 48.8256 142.554 47.8172 141.655 46.2779C139.802 43.1042 140.209 37.2839 145.467 32.921L142.205 28.9893C135.335 34.69 133.936 43.1905 137.243 48.8542C138.925 51.7337 141.805 53.7732 145.515 54.0752C149.157 54.3717 153.249 52.9734 157.501 49.7665L154.425 45.6874ZM145.467 32.921C150.078 29.0951 156.844 25.2668 163.556 22.0092C170.233 18.768 176.69 16.1711 180.565 14.7809L178.841 9.97185C174.803 11.42 168.177 14.087 161.325 17.4129C154.507 20.7223 147.296 24.7642 142.205 28.9893L145.467 32.921Z" fill="url(#paint0_linear_568_1144)"/>
<defs>
<linearGradient id="paint0_linear_568_1144" x1="-129.775" y1="76.5358" x2="174.873" y2="42.1244" gradientUnits="userSpaceOnUse">
<stop stop-color="#FFF278"/>
<stop offset="1" stop-color="#F28D2F"/>
</linearGradient>
</defs>
</svg>
